<?xml version="1.0" encoding="UTF-8"?>
<svg width="256" height="256" viewBox="0 0 256 256" fill="none" xmlns="http://www.w3.org/2000/svg">
    <rect width="256" height="256" rx="32" fill="#4CAF50"/>
    <path d="M80 60C80 54.4772 84.4772 50 90 50H166C171.523 50 176 54.4772 176 60V196C176 201.523 171.523 206 166 206H90C84.4772 206 80 201.523 80 196V60Z" fill="white"/>
    <rect x="96" y="78" width="64" height="8" rx="4" fill="#4CAF50"/>
    <rect x="96" y="98" width="64" height="8" rx="4" fill="#4CAF50"/>
    <rect x="96" y="118" width="48" height="8" rx="4" fill="#4CAF50"/>
    <rect x="96" y="148" width="64" height="8" rx="4" fill="#4CAF50"/>
    <rect x="96" y="168" width="32" height="8" rx="4" fill="#4CAF50"/>
</svg> 